<mxfile host="app.diagrams.net" modified="2023-09-27T07:09:22.048Z" agent="Mozilla/5.0 (Macintosh; Intel Mac OS X 10_15_7) AppleWebKit/537.36 (KHTML, like Gecko) Chrome/117.0.0.0 Safari/537.36" version="21.8.2" etag="0LGLj43dHsh2kzUmkzU5" type="github">
  <diagram name="第 1 页" id="zFCsPYKmAemc5M4zCG7X">
    <mxGraphModel>
      <root>
        <mxCell id="0" />
        <mxCell id="1" parent="0" />
      </root>
    </mxGraphModel>
  </diagram>
</mxfile>
